Coordinates
version=1
nRows=17
nColumns=34
inDegrees=yes

Units are S.I. units (second, meters, Newtons, ...)
If the header above contains a line with 'inDegrees', this indicates whether rotational values are in degrees (yes) or radians (no).

endheader
time	pelvis_tilt	pelvis_list	pelvis_rotation	pelvis_tx	pelvis_ty	pelvis_tz	hip_flexion_r	hip_adduction_r	hip_rotation_r	knee_angle_r	ankle_angle_r	subtalar_angle_r	mtp_angle_r	hip_flexion_l	hip_adduction_l	hip_rotation_l	knee_angle_l	ankle_angle_l	subtalar_angle_l	mtp_angle_l	lumbar_extension	lumbar_bending	lumbar_rotation	arm_flex_r	arm_add_r	arm_rot_r	elbow_flex_r	pro_sup_r	arm_flex_l	arm_add_l	arm_rot_l	elbow_flex_l	pro_sup_l
      2.40000000	    -14.16171085	     -0.07560679	      3.31462997	      0.91631334	      1.03751892	     -0.30043342	     34.21701822	    -10.05543676	     -5.50599843	     27.96979960	      4.03731730	    -12.98367226	      0.00000000	     32.79500811	     -9.00740686	     -0.98843164	     23.98220170	      3.68839883	     -0.14548846	      0.00000000	    -19.84598455	      0.86428938	     -0.88911016	     46.70243199	    -12.39186649	     28.14798782	     82.70261079	     85.98063567	     48.16038609	     -5.66759730	     29.57761532	     77.38582032	     68.04802011
      2.41666670	    -15.72877820	      0.22435078	      3.38733575	      0.90673013	      1.02874853	     -0.29839525	     37.68259403	    -10.88907139	     -5.37051721	     30.32641479	      4.20343283	    -12.14772178	      0.00000000	     36.31788997	     -8.87601483	     -1.19570039	     26.18400847	      4.01285665	     -0.38846125	      0.00000000	    -21.03250761	      0.25017911	     -1.51779040	     49.95734175	    -11.89935009	     27.90669957	     83.13692575	     85.72907797	     52.18797088	     -5.98828954	     29.30730354	     77.12151449	     67.62541445
      2.43333330	    -17.36709863	      0.45064297	      3.52848317	      0.89854636	      1.01834035	     -0.29799174	     41.24103518	    -11.66959836	     -5.34931103	     32.66811367	      4.10008995	    -11.40242452	      0.00000000	     39.80291832	     -8.68969070	     -1.20492996	     28.24414621	      4.37184787	     -0.38493396	      0.00000000	    -22.08721559	     -0.19050765	     -1.55240590	     53.61438339	    -11.75530680	     27.03519606	     83.45131370	     85.46450680	     55.70100947	     -5.73447375	     29.51260513	     78.17203169	     67.28098973
      2.45000000	    -18.82853098	      0.66541576	      3.71473154	      0.88921762	      1.01402581	     -0.29449233	     44.46230372	    -12.29171649	     -5.21355754	     34.75079922	      3.83664660	    -10.77906413	      0.00000000	     43.07818236	     -8.50943088	     -1.33472353	     30.25619656	      4.62590982	     -0.41938465	      0.00000000	    -23.60254642	     -0.76423499	     -1.70166560	     56.77476233	    -11.34172539	     26.39670557	     83.37564053	     85.28518542	     59.09186060	     -5.67242764	     29.40253456	     78.39962021	     66.88876931
      2.46666670	    -19.93807115	      0.70851855	      3.93858269	      0.88463838	      1.00526680	     -0.29430431	     47.28283439	    -12.74275966	     -5.14453258	     36.89372222	      3.61384369	    -10.62230304	      0.00000000	     45.77043253	     -8.51159461	     -1.42442991	     32.11298889	      5.12363583	     -0.26890309	      0.00000000	    -25.30005947	     -0.87457025	     -2.06517498	     59.91064622	    -10.84059237	     25.45360321	     83.67920245	     85.16845411	     62.90192536	     -5.31402084	     28.96103786	     78.44502039	     66.65758425
      2.48333330	    -21.54256735	      0.84061799	      4.28645748	      0.87386995	      0.99136664	     -0.29544281	     50.87523724	    -13.48032455	     -4.86162645	     39.24895911	      3.49618436	    -10.39298067	      0.00000000	     49.33707793	     -8.42288943	     -1.76811454	     34.46251567	      5.60260545	      0.10016090	      0.00000000	    -26.35375582	     -1.10904120	     -2.37142186	     63.27574543	    -10.51772102	     24.24648858	     83.94494316	     84.96047514	     66.80110279	     -4.92067862	     29.44041848	     78.22916004	     66.26471336
      2.50000000	    -22.63958515	      0.98902611	      4.59261539	      0.86658257	      0.98112596	     -0.29834924	     53.99224997	    -14.24058002	     -4.44826099	     41.67892093	      3.49808788	    -10.11253539	      0.00000000	     52.31271728	     -8.20784043	     -1.62362600	     36.69162043	      6.12913687	      0.49596462	      0.00000000	    -27.81177190	     -1.15049876	     -2.49814546	     66.68952739	    -10.51052962	     23.69596363	     84.47441614	     84.85456765	     70.18032547	     -4.40456222	     28.99904680	     77.90263796	     65.86358824
      2.51666670	    -23.47051182	      1.08156768	      4.81824539	      0.86257805	      0.96964877	     -0.30157563	     56.73213882	    -14.99141732	     -4.03673611	     44.14262984	      3.31106020	     -9.83178115	      0.00000000	     55.02002645	     -7.99451313	     -1.36340565	     39.13721125	      6.49431158	      0.59950323	      0.00000000	    -29.55850225	     -0.88602404	     -2.45430327	     70.40059872	    -10.22013652	     22.81983971	     84.69420142	     84.79564518	     73.52286596	     -3.76093824	     28.21900967	     78.06073103	     65.74445391
      2.53333330	    -24.74329019	      1.27165837	      5.15840240	      0.85847741	      0.96260025	     -0.29857160	     59.15667779	    -15.67647243	     -3.29289379	     45.62697709	      4.63821933	     -8.68899610	      0.00000000	     57.83629563	     -7.80962955	     -1.29028770	     41.24241464	      7.44298435	      1.54972535	      0.00000000	    -30.46494001	     -0.94686408	     -2.88324071	     73.01817377	     -9.87986176	     22.65617665	     85.25740520	     84.76059417	     76.30356347	     -3.66852801	     27.17778895	     77.51645485	     65.32455246
      2.55000000	    -25.57360744	      1.31143165	      5.21471682	      0.85316694	      0.95124712	     -0.29631162	     61.06507769	    -15.88303356	     -2.59866523	     46.87325643	      5.93606434	     -7.83705212	      0.00000000	     60.33907435	     -8.13656039	     -1.76622703	     43.60415562	      8.10509320	      2.14466184	      0.00000000	    -31.99393912	     -0.86079101	     -2.64470025	     76.07382516	     -9.48121640	     21.43072778	     85.45301962	     84.64730506	     79.16428789	     -2.94989861	     26.37150097	     78.22037787	     64.98416171
      2.56666670	    -26.44808341	      1.27309599	      5.24948823	      0.84340057	      0.94295903	     -0.29571097	     63.12689841	    -15.91696921	     -1.96561690	     48.12246131	      6.82895613	     -7.58339628	      0.00000000	     62.99807081	     -8.41696844	     -2.00430224	     45.83420840	      8.39875920	      2.20728331	      0.00000000	    -33.62691062	     -0.82524534	     -2.64390692	     79.41906439	     -8.93211368	     20.38702872	     85.64475934	     84.57957188	     82.39058364	     -2.74033435	     25.38331077	     78.15226306	     64.82781193
      2.58333330	    -27.13462360	      1.34944613	      5.15954794	      0.83711100	      0.93305335	     -0.29422549	     65.75454945	    -15.94381842	     -1.65032852	     50.37237738	      7.18482545	     -7.33418735	      0.00000000	     65.35439184	     -8.72408501	     -2.05376916	     47.79141938	      8.68560593	      2.38707433	      0.00000000	    -35.41533520	     -0.94279903	     -2.49858013	     82.52152765	     -8.47168394	     19.57458210	     85.75502278	     84.53159409	     85.43516037	     -2.34915229	     24.60590257	     78.24054184	     64.67565167
      2.60000000	    -27.84725261	      1.71345433	      4.69228610	      0.83198125	      0.91435410	     -0.29546247	     69.16819679	    -15.86144070	     -0.70030183	     53.71065548	      7.76065310	     -7.15504021	      0.00000000	     67.97770874	     -9.27603003	     -2.64334287	     50.44753768	      9.53189768	      2.41601056	      0.00000000	    -36.86859870	     -1.47074361	     -2.07411694	     85.52110505	     -8.27347983	     18.99315188	     86.46601453	     84.49024041	     88.29091268	     -1.98765974	     24.38134124	     78.91919648	     64.38022843
      2.61666670	    -28.49519637	      1.82328164	      4.77806029	      0.83138990	      0.90118625	     -0.29670934	     72.06246253	    -16.11963068	     -0.13472341	     56.87936275	      8.50955449	     -7.44026734	      0.00000000	     70.78344313	     -9.37629483	     -2.56345033	     53.48199501	     10.17072667	      1.72659643	      0.00000000	    -38.03101669	     -1.49600569	     -1.98546447	     87.57858432	     -8.81573311	     18.42457725	     87.89415439	     84.51646931	     90.78354594	     -1.94528721	     24.68286044	     80.00967656	     63.99823274
      2.63333330	    -28.82385288	      1.80111920	      5.15903715	      0.82898623	      0.89038765	     -0.29543998	     73.52767345	    -16.38386468	      0.78307877	     58.63602028	     10.07674475	     -7.84718876	      0.00000000	     73.00210700	     -9.33282492	     -2.07723231	     56.16606022	     11.08100824	      1.55876580	      0.00000000	    -39.11793924	     -1.17069075	     -2.01664288	     89.27765071	     -8.75013229	     17.73461321	     87.96000788	     84.50386223	     92.96440736	     -1.42980254	     24.33884823	     80.23647287	     63.91243420
      2.65000000	    -29.10148040	      1.92898752	      5.43178818	      0.82450907	      0.87380091	     -0.29897609	     75.70416949	    -16.92761935	      1.57394050	     61.12780469	     11.75455265	     -6.68176561	      0.00000000	     75.26026931	     -9.13112709	     -1.87586567	     59.05202977	     12.18352899	      1.80788612	      0.00000000	    -40.28532179	     -1.12140555	     -2.14660047	     91.06743831	     -8.87838856	     16.81948592	     89.19347349	     84.62146826	     95.26966816	     -0.99341609	     24.58985696	     80.55289766	     63.68485397
      2.66666670	    -29.64065452	      2.03340558	      5.78221644	      0.81620680	      0.85871881	     -0.30432189	     79.02577069	    -17.60511407	      2.29567859	     64.59429085	     12.37335657	     -6.52498514	      0.00000000	     77.91639369	     -8.54163801	     -1.68837409	     61.75193397	     12.62493896	      0.46605100	      0.00000000	    -41.13302357	     -0.82492817	     -1.98672287	     93.40632904	     -9.16916878	     16.11786900	     89.16645643	     84.73160598	     97.79484386	     -0.08727615	     24.47775449	     80.49889238	     63.50480317
